<?xml version="1.0" standalone="no"?>
<!DOCTYPE svg PUBLIC "-//W3C//DTD SVG 20010904//EN"
 "http://www.w3.org/TR/2001/REC-SVG-20010904/DTD/svg10.dtd">
<svg version="1.0" xmlns="http://www.w3.org/2000/svg"
 width="238.000000pt" height="209.000000pt" viewBox="0 0 238.000000 209.000000"
 preserveAspectRatio="xMidYMid meet">
<metadata>
Created by potrace 1.13, written by Peter Selinger 2001-2015
</metadata>
<g transform="translate(0.000000,209.000000) scale(0.100000,-0.100000)"
fill="#000000" stroke="none">
<path d="M0 1964 c0 -109 3 -129 17 -141 17 -14 17 -14 0 -9 -16 5 -17 -43
-17 -904 l0 -910 1174 0 c646 0 1181 2 1189 6 13 5 15 36 16 194 1 179 0 190
-19 200 -25 13 -26 32 -2 28 15 -3 17 10 20 138 l3 141 -138 -3 c-76 -2 -176
-8 -223 -13 -94 -11 -277 -8 -291 6 -21 21 11 32 111 37 77 4 107 9 114 20 28
42 -67 62 -154 31 -23 -8 -60 -15 -80 -15 -36 0 -39 -3 -51 -37 -6 -21 -16
-43 -21 -49 -5 -7 -6 -42 -2 -80 8 -73 29 -106 61 -98 11 3 25 -1 32 -10 7 -8
35 -22 62 -31 61 -21 79 -53 53 -94 -24 -36 -36 -44 -144 -99 -120 -62 -210
-91 -323 -104 -163 -21 -345 20 -435 98 -47 40 -69 92 -52 123 5 11 9 24 9 28
-1 4 2 17 6 27 7 17 -18 185 -32 209 -2 4 -19 -4 -36 -17 -18 -14 -45 -28 -60
-31 -23 -6 -29 -4 -34 13 -4 17 -9 19 -33 12 -15 -4 -33 -4 -41 0 -18 11 33
24 63 16 15 -3 30 2 43 14 12 11 38 21 58 22 20 2 37 6 37 10 0 22 -15 38 -37
38 -13 0 -23 5 -22 13 4 35 -1 40 -26 23 -28 -19 -139 -32 -179 -22 -17 4 -26
13 -26 26 0 18 7 20 68 22 37 0 78 0 92 0 24 -2 24 -1 5 11 -35 22 -94 87
-115 126 -19 38 -51 139 -73 233 -11 50 2 84 30 74 9 -4 13 4 13 29 0 28 -4
35 -20 35 -14 0 -20 7 -20 23 1 40 28 122 39 120 6 -2 12 0 12 5 3 18 9 68 10
84 0 10 5 20 10 23 5 4 7 11 3 16 -3 5 0 8 7 7 7 -2 15 6 17 17 5 24 41 77 59
88 7 5 11 12 8 17 -3 5 4 11 15 15 11 3 29 18 41 33 l21 27 -7 -25 c-7 -22 -6
-23 8 -12 9 8 13 20 10 28 -3 10 2 14 18 14 19 0 21 2 9 10 -12 8 -12 10 -1
10 8 0 19 7 25 15 12 17 80 40 71 24 -9 -13 6 -11 35 6 28 16 54 20 30 5 -13
-8 -12 -10 3 -10 9 0 17 7 17 15 0 8 5 15 10 15 9 0 14 -14 11 -32 0 -5 6 -8
14 -8 8 0 15 -8 15 -17 0 -11 3 -14 8 -7 9 14 105 9 110 -5 2 -6 14 -11 26
-11 12 0 28 -6 36 -12 8 -8 7 -2 -3 15 -17 26 -17 27 2 27 11 0 28 -3 38 -7
16 -6 16 -8 -4 -13 -16 -3 -20 -9 -14 -19 7 -11 15 -11 43 -1 19 7 46 10 59 7
21 -6 124 -91 154 -127 6 -7 24 -26 40 -44 17 -17 36 -44 43 -59 6 -15 17 -25
22 -22 6 3 10 -1 10 -9 0 -9 5 -16 11 -16 5 0 8 -4 4 -10 -3 -5 -12 -7 -20 -3
-18 6 -18 7 0 -42 13 -36 14 -37 15 -12 0 26 13 36 24 18 10 -15 53 -18 71 -5
15 11 16 16 5 29 -7 9 -20 13 -27 10 -8 -2 -23 0 -34 6 -19 10 -20 19 -1 67 3
9 -2 10 -21 3 -29 -11 -37 -6 -37 26 0 13 -21 68 -46 123 -46 97 -49 100 -119
147 -104 69 -136 86 -170 87 -17 1 -36 5 -43 10 -6 4 -56 7 -109 6 -54 -1
-113 -1 -132 0 -34 1 -100 -27 -160 -67 -19 -13 -42 -23 -52 -23 -10 0 -39
-16 -65 -35 -52 -40 -57 -41 -78 -19 -15 14 -16 13 -16 -6 0 -14 4 -19 12 -14
7 5 3 -8 -9 -27 -29 -46 -47 -56 -68 -39 -10 9 -14 22 -11 36 5 18 3 22 -9 18
-8 -4 -15 -9 -15 -13 0 -3 -9 -12 -20 -19 -17 -11 -23 -10 -37 4 -21 21 -6 48
30 52 34 4 51 26 43 57 -5 21 -12 25 -45 25 -27 0 -41 5 -45 16 -4 11 -13 14
-28 11 -26 -7 -58 8 -58 28 0 8 14 22 30 30 33 17 31 31 -6 45 -20 8 -23 14
-18 35 l6 25 -201 0 -201 0 0 -126z m762 -1381 c-9 -3 2 -13 27 -24 54 -24 53
-40 -2 -33 -74 10 -125 -11 -187 -77 -53 -57 -84 -72 -93 -46 -2 6 4 24 14 38
10 14 16 29 13 32 -7 6 -47 -16 -79 -44 -18 -15 -112 -69 -121 -69 -22 0 26
54 148 166 41 37 72 49 148 55 101 8 148 9 132 2z"/>
<path d="M1708 1380 c-5 -68 11 -137 31 -132 13 3 34 -45 25 -59 -3 -6 -14 -7
-25 -4 -17 6 -19 1 -19 -59 0 -35 -4 -75 -9 -88 -4 -13 -6 -60 -3 -105 l5 -83
36 0 c52 0 62 10 60 59 -2 28 2 45 11 51 20 13 50 -7 50 -33 0 -12 3 -33 7
-46 6 -23 7 -23 106 -16 55 4 145 9 201 12 56 2 122 7 149 10 l47 5 0 57 c0
46 -6 66 -30 104 -16 26 -30 54 -30 61 0 17 25 27 45 20 13 -5 15 6 15 69 l0
74 -37 -1 c-32 -1 -38 2 -36 19 1 11 0 27 -3 35 -5 13 -7 12 -15 -2 -6 -10
-17 -18 -26 -18 -13 0 -14 -7 -9 -37 3 -21 6 -46 6 -56 0 -15 6 -17 36 -11 35
6 35 6 32 -22 -2 -19 -10 -30 -23 -32 -11 -2 -28 -11 -37 -19 -10 -9 -24 -13
-33 -9 -9 3 -24 -3 -35 -14 -11 -11 -28 -20 -38 -20 -33 0 -40 19 -35 85 5 61
4 63 -16 58 -16 -4 -21 -13 -21 -40 l0 -36 -40 6 c-22 3 -43 1 -46 -4 -8 -13
-35 -11 -65 5 -15 7 -39 11 -53 9 -23 -5 -26 -2 -26 22 0 24 3 27 26 22 14 -2
38 2 54 9 27 14 27 15 12 49 -9 18 -20 31 -24 29 -18 -11 -58 6 -58 25 0 15 9
21 38 25 54 7 71 5 65 -11 -8 -21 44 -92 70 -93 16 0 5 21 -27 53 l-34 34 33
12 c18 6 36 18 39 27 7 18 -21 31 -36 16 -12 -12 -38 -4 -53 16 -9 11 -15 9
-37 -11 -25 -23 -26 -23 -49 -6 -12 9 -37 18 -53 18 -87 3 -101 6 -107 21 -3
8 -8 -14 -11 -50z"/>
<path d="M1434 1345 c3 -15 1 -23 -5 -20 -5 4 -6 11 -3 17 5 7 0 9 -14 6 -12
-3 -23 -1 -26 6 -3 7 -9 4 -17 -8 -25 -40 -50 -57 -72 -50 -12 4 -25 12 -29
18 -4 6 -8 -3 -8 -21 0 -17 4 -34 9 -37 4 -3 11 -22 14 -42 9 -54 66 -111 67
-66 1 10 7 3 15 -15 8 -18 18 -33 22 -33 12 0 43 -54 43 -75 0 -10 -20 -25
-52 -39 -29 -13 -61 -32 -70 -42 -16 -18 -15 -19 15 -21 18 -1 43 -5 56 -8
l24 -6 -25 -13 c-14 -8 -49 -21 -77 -31 -28 -9 -51 -18 -51 -20 0 -2 39 0 103
7 9 1 17 5 17 9 0 12 45 26 64 19 19 -6 19 -7 0 -21 -34 -24 -39 -40 -9 -29
34 13 38 13 29 -2 -8 -13 12 -3 39 20 15 14 17 13 18 -4 1 -10 3 -36 4 -57 2
-32 -2 -40 -24 -53 -18 -10 -20 -13 -6 -10 29 7 98 20 110 21 17 0 18 38 1 47
-19 11 -12 28 12 28 13 0 17 10 18 47 2 61 9 112 18 120 10 10 7 18 -11 40
-10 11 -27 19 -37 17 -51 -7 -172 87 -159 123 13 38 36 52 94 59 52 6 57 8 42
20 -11 8 -13 13 -5 14 6 0 12 5 12 10 0 6 -16 10 -35 10 -19 0 -35 5 -35 11 0
6 9 9 19 6 10 -2 25 -1 32 4 11 6 9 12 -5 28 -11 12 -25 21 -33 21 -8 0 -11 4
-8 10 4 6 -4 6 -21 0 -19 -8 -30 -8 -38 0 -17 17 -27 11 -22 -15z"/>
<path d="M1003 1258 c-24 -10 -43 -24 -43 -30 0 -7 -4 -7 -14 1 -11 9 -20 7
-41 -13 l-27 -25 31 4 c17 2 31 1 31 -1 0 -3 -14 -18 -30 -34 -33 -32 -24 -40
16 -14 15 10 50 17 92 19 91 3 85 2 117 29 20 17 24 26 15 31 -10 6 -9 11 4
20 15 12 15 13 -1 20 -36 15 -108 12 -150 -7z"/>
<path d="M2309 815 c-20 -8 -91 -15 -158 -18 -117 -4 -151 -13 -137 -36 8 -12
134 -14 274 -5 l92 7 0 33 c0 38 -10 41 -71 19z"/>
<path d="M1562 610 l-40 -42 -16 23 c-9 13 -16 17 -16 10 0 -21 -32 -40 -67
-41 -18 0 -33 -4 -33 -9 0 -10 -29 -21 -80 -31 l-35 -7 43 -8 c45 -8 54 -25
27 -51 -21 -21 -19 -29 11 -43 23 -10 25 -15 19 -47 -4 -24 -3 -34 4 -29 6 3
11 -1 11 -9 0 -10 9 -16 24 -16 13 0 29 -7 36 -15 10 -12 10 -15 -1 -15 -12 0
-12 -2 0 -9 11 -7 11 -9 0 -14 -8 -3 1 -5 20 -4 19 1 36 -4 38 -10 2 -6 13 -9
23 -6 14 4 18 12 15 27 -2 11 -7 38 -10 59 -7 50 -45 92 -45 50 0 -14 -3 -14
-12 -5 -10 10 -10 15 1 22 11 6 12 12 4 22 -16 20 4 63 71 151 65 86 70 111 8
47z"/>
</g>
</svg>
